<mxfile host="app.diagrams.net" agent="Mozilla/5.0 (Windows NT 10.0; Win64; x64) AppleWebKit/537.36 (KHTML, like Gecko) Chrome/141.0.0.0 Safari/537.36" version="28.2.8">
  <diagram id="C5RBs43oDa-KdzZeNtuy" name="Page-1">
    <mxGraphModel dx="3067" dy="3286" grid="1" gridSize="10" guides="1" tooltips="1" connect="1" arrows="1" fold="1" page="1" pageScale="1" pageWidth="827" pageHeight="1169" math="0" shadow="0">
      <root>
        <mxCell id="WIyWlLk6GJQsqaUBKTNV-0" />
        <mxCell id="WIyWlLk6GJQsqaUBKTNV-1" parent="WIyWlLk6GJQsqaUBKTNV-0" />
        <mxCell id="CYZuDN-kLoIxF7Ar0B1F-1" value="Display order" style="rounded=0;whiteSpace=wrap;html=1;" parent="WIyWlLk6GJQsqaUBKTNV-1" vertex="1">
          <mxGeometry x="-680" y="270" width="120" height="60" as="geometry" />
        </mxCell>
        <mxCell id="I2zsLf9uVO9FWtNclEBN-5" value="" style="edgeStyle=orthogonalEdgeStyle;rounded=0;orthogonalLoop=1;jettySize=auto;html=1;" parent="WIyWlLk6GJQsqaUBKTNV-1" source="CYZuDN-kLoIxF7Ar0B1F-3" target="I2zsLf9uVO9FWtNclEBN-4" edge="1">
          <mxGeometry relative="1" as="geometry" />
        </mxCell>
        <mxCell id="CYZuDN-kLoIxF7Ar0B1F-3" value="Add order" style="rounded=0;whiteSpace=wrap;html=1;" parent="WIyWlLk6GJQsqaUBKTNV-1" vertex="1">
          <mxGeometry x="-390" y="270" width="120" height="50" as="geometry" />
        </mxCell>
        <mxCell id="iSP8wMhFKayLy5F43xN8-8" style="edgeStyle=orthogonalEdgeStyle;rounded=0;orthogonalLoop=1;jettySize=auto;html=1;" edge="1" parent="WIyWlLk6GJQsqaUBKTNV-1" source="CYZuDN-kLoIxF7Ar0B1F-4" target="iSP8wMhFKayLy5F43xN8-0">
          <mxGeometry relative="1" as="geometry" />
        </mxCell>
        <mxCell id="CYZuDN-kLoIxF7Ar0B1F-4" value="Edit order" style="rounded=0;whiteSpace=wrap;html=1;" parent="WIyWlLk6GJQsqaUBKTNV-1" vertex="1">
          <mxGeometry x="40" y="270" width="120" height="60" as="geometry" />
        </mxCell>
        <mxCell id="CYZuDN-kLoIxF7Ar0B1F-5" value="Remove order" style="rounded=0;whiteSpace=wrap;html=1;" parent="WIyWlLk6GJQsqaUBKTNV-1" vertex="1">
          <mxGeometry x="390" y="260" width="120" height="60" as="geometry" />
        </mxCell>
        <mxCell id="CYZuDN-kLoIxF7Ar0B1F-6" value="Quit&amp;nbsp;" style="rounded=0;whiteSpace=wrap;html=1;" parent="WIyWlLk6GJQsqaUBKTNV-1" vertex="1">
          <mxGeometry x="700" y="260" width="120" height="60" as="geometry" />
        </mxCell>
        <mxCell id="CYZuDN-kLoIxF7Ar0B1F-9" value="Dsiplay Main Menu" style="rounded=0;whiteSpace=wrap;html=1;" parent="WIyWlLk6GJQsqaUBKTNV-1" vertex="1">
          <mxGeometry x="-60" y="40" width="120" height="60" as="geometry" />
        </mxCell>
        <mxCell id="CYZuDN-kLoIxF7Ar0B1F-11" value="" style="endArrow=classic;html=1;rounded=0;exitX=0.5;exitY=1;exitDx=0;exitDy=0;entryX=0.5;entryY=0;entryDx=0;entryDy=0;" parent="WIyWlLk6GJQsqaUBKTNV-1" source="CYZuDN-kLoIxF7Ar0B1F-9" target="CYZuDN-kLoIxF7Ar0B1F-2" edge="1">
          <mxGeometry width="50" height="50" relative="1" as="geometry">
            <mxPoint x="380" y="210" as="sourcePoint" />
            <mxPoint x="530" y="140" as="targetPoint" />
          </mxGeometry>
        </mxCell>
        <mxCell id="CYZuDN-kLoIxF7Ar0B1F-12" value="" style="endArrow=classic;html=1;rounded=0;entryX=0.5;entryY=0;entryDx=0;entryDy=0;exitX=0.11;exitY=0.629;exitDx=0;exitDy=0;exitPerimeter=0;" parent="WIyWlLk6GJQsqaUBKTNV-1" source="CYZuDN-kLoIxF7Ar0B1F-2" target="CYZuDN-kLoIxF7Ar0B1F-1" edge="1">
          <mxGeometry width="50" height="50" relative="1" as="geometry">
            <mxPoint x="330" y="180" as="sourcePoint" />
            <mxPoint x="430" y="160" as="targetPoint" />
          </mxGeometry>
        </mxCell>
        <mxCell id="CYZuDN-kLoIxF7Ar0B1F-13" value="" style="endArrow=classic;html=1;rounded=0;entryX=0.5;entryY=0;entryDx=0;entryDy=0;" parent="WIyWlLk6GJQsqaUBKTNV-1" source="CYZuDN-kLoIxF7Ar0B1F-2" target="CYZuDN-kLoIxF7Ar0B1F-3" edge="1">
          <mxGeometry width="50" height="50" relative="1" as="geometry">
            <mxPoint x="280" y="240" as="sourcePoint" />
            <mxPoint x="430" y="160" as="targetPoint" />
          </mxGeometry>
        </mxCell>
        <mxCell id="CYZuDN-kLoIxF7Ar0B1F-14" value="" style="endArrow=classic;html=1;rounded=0;entryX=0.5;entryY=0;entryDx=0;entryDy=0;exitX=0.5;exitY=1;exitDx=0;exitDy=0;" parent="WIyWlLk6GJQsqaUBKTNV-1" source="CYZuDN-kLoIxF7Ar0B1F-2" target="CYZuDN-kLoIxF7Ar0B1F-4" edge="1">
          <mxGeometry width="50" height="50" relative="1" as="geometry">
            <mxPoint x="380" y="210" as="sourcePoint" />
            <mxPoint x="430" y="160" as="targetPoint" />
          </mxGeometry>
        </mxCell>
        <mxCell id="CYZuDN-kLoIxF7Ar0B1F-15" value="" style="endArrow=classic;html=1;rounded=0;entryX=0.5;entryY=0;entryDx=0;entryDy=0;exitX=1;exitY=1;exitDx=0;exitDy=0;" parent="WIyWlLk6GJQsqaUBKTNV-1" source="CYZuDN-kLoIxF7Ar0B1F-2" target="CYZuDN-kLoIxF7Ar0B1F-5" edge="1">
          <mxGeometry width="50" height="50" relative="1" as="geometry">
            <mxPoint x="390" y="200" as="sourcePoint" />
            <mxPoint x="430" y="160" as="targetPoint" />
          </mxGeometry>
        </mxCell>
        <mxCell id="CYZuDN-kLoIxF7Ar0B1F-16" value="" style="endArrow=classic;html=1;rounded=0;entryX=0.5;entryY=0;entryDx=0;entryDy=0;exitX=1;exitY=0.5;exitDx=0;exitDy=0;" parent="WIyWlLk6GJQsqaUBKTNV-1" source="CYZuDN-kLoIxF7Ar0B1F-2" target="CYZuDN-kLoIxF7Ar0B1F-6" edge="1">
          <mxGeometry width="50" height="50" relative="1" as="geometry">
            <mxPoint x="380" y="210" as="sourcePoint" />
            <mxPoint x="430" y="160" as="targetPoint" />
          </mxGeometry>
        </mxCell>
        <mxCell id="CYZuDN-kLoIxF7Ar0B1F-17" value="Ask user for date&amp;nbsp;" style="shape=parallelogram;perimeter=parallelogramPerimeter;whiteSpace=wrap;html=1;fixedSize=1;" parent="WIyWlLk6GJQsqaUBKTNV-1" vertex="1">
          <mxGeometry x="-685" y="390" width="130" height="70" as="geometry" />
        </mxCell>
        <mxCell id="CYZuDN-kLoIxF7Ar0B1F-19" value="Validate date" style="rhombus;whiteSpace=wrap;html=1;" parent="WIyWlLk6GJQsqaUBKTNV-1" vertex="1">
          <mxGeometry x="-675" y="520" width="110" height="110" as="geometry" />
        </mxCell>
        <mxCell id="CYZuDN-kLoIxF7Ar0B1F-20" value="" style="endArrow=classic;html=1;rounded=0;exitX=0.5;exitY=1;exitDx=0;exitDy=0;entryX=0.5;entryY=0;entryDx=0;entryDy=0;" parent="WIyWlLk6GJQsqaUBKTNV-1" source="CYZuDN-kLoIxF7Ar0B1F-1" target="CYZuDN-kLoIxF7Ar0B1F-17" edge="1">
          <mxGeometry width="50" height="50" relative="1" as="geometry">
            <mxPoint x="370" y="410" as="sourcePoint" />
            <mxPoint x="420" y="360" as="targetPoint" />
          </mxGeometry>
        </mxCell>
        <mxCell id="CYZuDN-kLoIxF7Ar0B1F-21" value="" style="endArrow=classic;html=1;rounded=0;exitX=0.5;exitY=1;exitDx=0;exitDy=0;entryX=0.5;entryY=0;entryDx=0;entryDy=0;" parent="WIyWlLk6GJQsqaUBKTNV-1" source="CYZuDN-kLoIxF7Ar0B1F-17" target="CYZuDN-kLoIxF7Ar0B1F-19" edge="1">
          <mxGeometry width="50" height="50" relative="1" as="geometry">
            <mxPoint x="370" y="410" as="sourcePoint" />
            <mxPoint x="420" y="360" as="targetPoint" />
          </mxGeometry>
        </mxCell>
        <mxCell id="CYZuDN-kLoIxF7Ar0B1F-22" value="" style="endArrow=classic;html=1;rounded=0;exitX=0;exitY=0.5;exitDx=0;exitDy=0;" parent="WIyWlLk6GJQsqaUBKTNV-1" source="CYZuDN-kLoIxF7Ar0B1F-19" edge="1">
          <mxGeometry width="50" height="50" relative="1" as="geometry">
            <mxPoint x="370" y="610" as="sourcePoint" />
            <mxPoint x="-720" y="575" as="targetPoint" />
          </mxGeometry>
        </mxCell>
        <mxCell id="CYZuDN-kLoIxF7Ar0B1F-23" value="" style="endArrow=classic;html=1;rounded=0;" parent="WIyWlLk6GJQsqaUBKTNV-1" edge="1">
          <mxGeometry width="50" height="50" relative="1" as="geometry">
            <mxPoint x="-720" y="580" as="sourcePoint" />
            <mxPoint x="-720" y="420" as="targetPoint" />
          </mxGeometry>
        </mxCell>
        <mxCell id="CYZuDN-kLoIxF7Ar0B1F-24" value="" style="endArrow=classic;html=1;rounded=0;entryX=0;entryY=0.5;entryDx=0;entryDy=0;" parent="WIyWlLk6GJQsqaUBKTNV-1" target="CYZuDN-kLoIxF7Ar0B1F-17" edge="1">
          <mxGeometry width="50" height="50" relative="1" as="geometry">
            <mxPoint x="-720" y="425" as="sourcePoint" />
            <mxPoint x="420" y="560" as="targetPoint" />
          </mxGeometry>
        </mxCell>
        <mxCell id="CYZuDN-kLoIxF7Ar0B1F-25" value="If invalid" style="text;html=1;align=center;verticalAlign=middle;whiteSpace=wrap;rounded=0;" parent="WIyWlLk6GJQsqaUBKTNV-1" vertex="1">
          <mxGeometry x="-720" y="490" width="60" height="30" as="geometry" />
        </mxCell>
        <mxCell id="CYZuDN-kLoIxF7Ar0B1F-27" value="Get orders from given date" style="rounded=0;whiteSpace=wrap;html=1;" parent="WIyWlLk6GJQsqaUBKTNV-1" vertex="1">
          <mxGeometry x="-680" y="700" width="120" height="60" as="geometry" />
        </mxCell>
        <mxCell id="CYZuDN-kLoIxF7Ar0B1F-28" value="Are there any orders?" style="rhombus;whiteSpace=wrap;html=1;" parent="WIyWlLk6GJQsqaUBKTNV-1" vertex="1">
          <mxGeometry x="-685" y="800" width="130" height="120" as="geometry" />
        </mxCell>
        <mxCell id="CYZuDN-kLoIxF7Ar0B1F-29" value="Display orders from given date" style="rounded=0;whiteSpace=wrap;html=1;" parent="WIyWlLk6GJQsqaUBKTNV-1" vertex="1">
          <mxGeometry x="-680" y="990" width="120" height="60" as="geometry" />
        </mxCell>
        <mxCell id="CYZuDN-kLoIxF7Ar0B1F-30" value="" style="endArrow=classic;html=1;rounded=0;exitX=0.5;exitY=1;exitDx=0;exitDy=0;entryX=0.5;entryY=0;entryDx=0;entryDy=0;" parent="WIyWlLk6GJQsqaUBKTNV-1" source="CYZuDN-kLoIxF7Ar0B1F-19" target="CYZuDN-kLoIxF7Ar0B1F-27" edge="1">
          <mxGeometry width="50" height="50" relative="1" as="geometry">
            <mxPoint x="370" y="710" as="sourcePoint" />
            <mxPoint x="420" y="660" as="targetPoint" />
          </mxGeometry>
        </mxCell>
        <mxCell id="CYZuDN-kLoIxF7Ar0B1F-31" value="" style="endArrow=classic;html=1;rounded=0;exitX=0.5;exitY=1;exitDx=0;exitDy=0;entryX=0.5;entryY=0;entryDx=0;entryDy=0;" parent="WIyWlLk6GJQsqaUBKTNV-1" source="CYZuDN-kLoIxF7Ar0B1F-27" target="CYZuDN-kLoIxF7Ar0B1F-28" edge="1">
          <mxGeometry width="50" height="50" relative="1" as="geometry">
            <mxPoint x="370" y="710" as="sourcePoint" />
            <mxPoint x="420" y="660" as="targetPoint" />
          </mxGeometry>
        </mxCell>
        <mxCell id="CYZuDN-kLoIxF7Ar0B1F-32" value="" style="endArrow=classic;html=1;rounded=0;exitX=0.5;exitY=1;exitDx=0;exitDy=0;entryX=0.5;entryY=0;entryDx=0;entryDy=0;" parent="WIyWlLk6GJQsqaUBKTNV-1" source="CYZuDN-kLoIxF7Ar0B1F-28" target="CYZuDN-kLoIxF7Ar0B1F-29" edge="1">
          <mxGeometry width="50" height="50" relative="1" as="geometry">
            <mxPoint x="370" y="910" as="sourcePoint" />
            <mxPoint x="420" y="860" as="targetPoint" />
          </mxGeometry>
        </mxCell>
        <mxCell id="CYZuDN-kLoIxF7Ar0B1F-33" value="If valid" style="text;html=1;align=center;verticalAlign=middle;whiteSpace=wrap;rounded=0;" parent="WIyWlLk6GJQsqaUBKTNV-1" vertex="1">
          <mxGeometry x="-625" y="650" width="60" height="30" as="geometry" />
        </mxCell>
        <mxCell id="CYZuDN-kLoIxF7Ar0B1F-34" value="" style="endArrow=classic;html=1;rounded=0;exitX=0;exitY=0.5;exitDx=0;exitDy=0;" parent="WIyWlLk6GJQsqaUBKTNV-1" source="CYZuDN-kLoIxF7Ar0B1F-28" edge="1">
          <mxGeometry width="50" height="50" relative="1" as="geometry">
            <mxPoint x="370" y="810" as="sourcePoint" />
            <mxPoint x="-800" y="860" as="targetPoint" />
          </mxGeometry>
        </mxCell>
        <mxCell id="CYZuDN-kLoIxF7Ar0B1F-36" value="" style="endArrow=classic;html=1;rounded=0;entryX=0;entryY=0.5;entryDx=0;entryDy=0;exitX=1;exitY=0.5;exitDx=0;exitDy=0;" parent="WIyWlLk6GJQsqaUBKTNV-1" source="CYZuDN-kLoIxF7Ar0B1F-39" target="CYZuDN-kLoIxF7Ar0B1F-9" edge="1">
          <mxGeometry width="50" height="50" relative="1" as="geometry">
            <mxPoint x="120" y="60" as="sourcePoint" />
            <mxPoint x="420" y="210" as="targetPoint" />
          </mxGeometry>
        </mxCell>
        <mxCell id="CYZuDN-kLoIxF7Ar0B1F-37" value="yes" style="text;html=1;align=center;verticalAlign=middle;whiteSpace=wrap;rounded=0;" parent="WIyWlLk6GJQsqaUBKTNV-1" vertex="1">
          <mxGeometry x="-630" y="940" width="60" height="30" as="geometry" />
        </mxCell>
        <mxCell id="CYZuDN-kLoIxF7Ar0B1F-38" value="no" style="text;html=1;align=center;verticalAlign=middle;whiteSpace=wrap;rounded=0;" parent="WIyWlLk6GJQsqaUBKTNV-1" vertex="1">
          <mxGeometry x="-770" y="830" width="60" height="30" as="geometry" />
        </mxCell>
        <mxCell id="CYZuDN-kLoIxF7Ar0B1F-39" value="Display error messege" style="rounded=0;whiteSpace=wrap;html=1;" parent="WIyWlLk6GJQsqaUBKTNV-1" vertex="1">
          <mxGeometry x="-820" y="40" width="120" height="60" as="geometry" />
        </mxCell>
        <mxCell id="CYZuDN-kLoIxF7Ar0B1F-41" value="" style="endArrow=classic;html=1;rounded=0;entryX=0.168;entryY=1.005;entryDx=0;entryDy=0;entryPerimeter=0;" parent="WIyWlLk6GJQsqaUBKTNV-1" target="CYZuDN-kLoIxF7Ar0B1F-39" edge="1">
          <mxGeometry width="50" height="50" relative="1" as="geometry">
            <mxPoint x="-800" y="860" as="sourcePoint" />
            <mxPoint x="10" y="130" as="targetPoint" />
          </mxGeometry>
        </mxCell>
        <mxCell id="CYZuDN-kLoIxF7Ar0B1F-2" value="Ask user for operation" style="rhombus;whiteSpace=wrap;html=1;" parent="WIyWlLk6GJQsqaUBKTNV-1" vertex="1">
          <mxGeometry x="-65" y="170" width="130" height="80" as="geometry" />
        </mxCell>
        <mxCell id="15Mz8JeblNYs6hZpZR7e-14" value="" style="edgeStyle=orthogonalEdgeStyle;rounded=0;orthogonalLoop=1;jettySize=auto;html=1;exitX=0.5;exitY=1;exitDx=0;exitDy=0;" parent="WIyWlLk6GJQsqaUBKTNV-1" source="CYZuDN-kLoIxF7Ar0B1F-5" target="15Mz8JeblNYs6hZpZR7e-16" edge="1">
          <mxGeometry relative="1" as="geometry">
            <mxPoint x="570" y="360" as="sourcePoint" />
          </mxGeometry>
        </mxCell>
        <mxCell id="15Mz8JeblNYs6hZpZR7e-15" style="edgeStyle=orthogonalEdgeStyle;rounded=0;orthogonalLoop=1;jettySize=auto;html=1;entryX=0.5;entryY=0;entryDx=0;entryDy=0;" parent="WIyWlLk6GJQsqaUBKTNV-1" source="15Mz8JeblNYs6hZpZR7e-16" target="15Mz8JeblNYs6hZpZR7e-21" edge="1">
          <mxGeometry relative="1" as="geometry" />
        </mxCell>
        <mxCell id="15Mz8JeblNYs6hZpZR7e-16" value="get date&amp;nbsp;&lt;div&gt;&amp;amp;&amp;nbsp;&lt;/div&gt;&lt;div&gt;order Num&lt;/div&gt;" style="rhombus;whiteSpace=wrap;html=1;" parent="WIyWlLk6GJQsqaUBKTNV-1" vertex="1">
          <mxGeometry x="390" y="380" width="120" height="80" as="geometry" />
        </mxCell>
        <mxCell id="15Mz8JeblNYs6hZpZR7e-17" value="" style="edgeStyle=orthogonalEdgeStyle;rounded=0;orthogonalLoop=1;jettySize=auto;html=1;" parent="WIyWlLk6GJQsqaUBKTNV-1" source="15Mz8JeblNYs6hZpZR7e-18" target="15Mz8JeblNYs6hZpZR7e-19" edge="1">
          <mxGeometry relative="1" as="geometry" />
        </mxCell>
        <mxCell id="15Mz8JeblNYs6hZpZR7e-18" value="confirm to dlt" style="rounded=1;whiteSpace=wrap;html=1;" parent="WIyWlLk6GJQsqaUBKTNV-1" vertex="1">
          <mxGeometry x="390" y="635" width="120" height="60" as="geometry" />
        </mxCell>
        <mxCell id="15Mz8JeblNYs6hZpZR7e-19" value="remove the oder" style="rounded=1;whiteSpace=wrap;html=1;" parent="WIyWlLk6GJQsqaUBKTNV-1" vertex="1">
          <mxGeometry x="390" y="760" width="120" height="60" as="geometry" />
        </mxCell>
        <mxCell id="15Mz8JeblNYs6hZpZR7e-20" style="edgeStyle=orthogonalEdgeStyle;rounded=0;orthogonalLoop=1;jettySize=auto;html=1;exitX=0.5;exitY=1;exitDx=0;exitDy=0;entryX=0.5;entryY=0;entryDx=0;entryDy=0;" parent="WIyWlLk6GJQsqaUBKTNV-1" source="15Mz8JeblNYs6hZpZR7e-21" target="15Mz8JeblNYs6hZpZR7e-18" edge="1">
          <mxGeometry relative="1" as="geometry" />
        </mxCell>
        <mxCell id="15Mz8JeblNYs6hZpZR7e-21" value="valid" style="rhombus;whiteSpace=wrap;html=1;" parent="WIyWlLk6GJQsqaUBKTNV-1" vertex="1">
          <mxGeometry x="380" y="510" width="140" height="90" as="geometry" />
        </mxCell>
        <mxCell id="15Mz8JeblNYs6hZpZR7e-23" value="" style="endArrow=none;html=1;rounded=0;" parent="WIyWlLk6GJQsqaUBKTNV-1" edge="1">
          <mxGeometry width="50" height="50" relative="1" as="geometry">
            <mxPoint x="310" y="560" as="sourcePoint" />
            <mxPoint x="310" y="420" as="targetPoint" />
          </mxGeometry>
        </mxCell>
        <mxCell id="15Mz8JeblNYs6hZpZR7e-25" value="yes" style="text;html=1;whiteSpace=wrap;strokeColor=none;fillColor=none;align=center;verticalAlign=middle;rounded=0;" parent="WIyWlLk6GJQsqaUBKTNV-1" vertex="1">
          <mxGeometry x="440" y="600" width="60" height="30" as="geometry" />
        </mxCell>
        <mxCell id="15Mz8JeblNYs6hZpZR7e-29" value="" style="endArrow=none;html=1;rounded=0;entryX=0;entryY=0.5;entryDx=0;entryDy=0;" parent="WIyWlLk6GJQsqaUBKTNV-1" target="15Mz8JeblNYs6hZpZR7e-21" edge="1">
          <mxGeometry width="50" height="50" relative="1" as="geometry">
            <mxPoint x="310" y="555" as="sourcePoint" />
            <mxPoint x="390" y="560" as="targetPoint" />
          </mxGeometry>
        </mxCell>
        <mxCell id="15Mz8JeblNYs6hZpZR7e-30" value="" style="endArrow=classic;html=1;rounded=0;entryX=0;entryY=0.5;entryDx=0;entryDy=0;" parent="WIyWlLk6GJQsqaUBKTNV-1" target="15Mz8JeblNYs6hZpZR7e-16" edge="1">
          <mxGeometry width="50" height="50" relative="1" as="geometry">
            <mxPoint x="310" y="420" as="sourcePoint" />
            <mxPoint x="390" y="560" as="targetPoint" />
          </mxGeometry>
        </mxCell>
        <mxCell id="15Mz8JeblNYs6hZpZR7e-31" value="No" style="text;html=1;whiteSpace=wrap;strokeColor=none;fillColor=none;align=center;verticalAlign=middle;rounded=0;" parent="WIyWlLk6GJQsqaUBKTNV-1" vertex="1">
          <mxGeometry x="310" y="530" width="60" height="30" as="geometry" />
        </mxCell>
        <mxCell id="I2zsLf9uVO9FWtNclEBN-3" value="" style="edgeStyle=orthogonalEdgeStyle;rounded=0;orthogonalLoop=1;jettySize=auto;html=1;" parent="WIyWlLk6GJQsqaUBKTNV-1" source="I2zsLf9uVO9FWtNclEBN-0" target="I2zsLf9uVO9FWtNclEBN-2" edge="1">
          <mxGeometry relative="1" as="geometry" />
        </mxCell>
        <mxCell id="I2zsLf9uVO9FWtNclEBN-0" value="Display List of Products Available" style="rounded=1;whiteSpace=wrap;html=1;" parent="WIyWlLk6GJQsqaUBKTNV-1" vertex="1">
          <mxGeometry x="-390" y="480" width="120" height="60" as="geometry" />
        </mxCell>
        <mxCell id="I2zsLf9uVO9FWtNclEBN-8" value="" style="edgeStyle=orthogonalEdgeStyle;rounded=0;orthogonalLoop=1;jettySize=auto;html=1;" parent="WIyWlLk6GJQsqaUBKTNV-1" source="I2zsLf9uVO9FWtNclEBN-2" target="I2zsLf9uVO9FWtNclEBN-7" edge="1">
          <mxGeometry relative="1" as="geometry" />
        </mxCell>
        <mxCell id="I2zsLf9uVO9FWtNclEBN-2" value="User Select Product &amp;amp; choose Order Date" style="rounded=1;whiteSpace=wrap;html=1;" parent="WIyWlLk6GJQsqaUBKTNV-1" vertex="1">
          <mxGeometry x="-390" y="600" width="120" height="60" as="geometry" />
        </mxCell>
        <mxCell id="I2zsLf9uVO9FWtNclEBN-6" value="" style="edgeStyle=orthogonalEdgeStyle;rounded=0;orthogonalLoop=1;jettySize=auto;html=1;" parent="WIyWlLk6GJQsqaUBKTNV-1" source="I2zsLf9uVO9FWtNclEBN-4" target="I2zsLf9uVO9FWtNclEBN-0" edge="1">
          <mxGeometry relative="1" as="geometry" />
        </mxCell>
        <mxCell id="I2zsLf9uVO9FWtNclEBN-4" value="Read Product Data from Products.txt" style="shape=parallelogram;perimeter=parallelogramPerimeter;whiteSpace=wrap;html=1;fixedSize=1;" parent="WIyWlLk6GJQsqaUBKTNV-1" vertex="1">
          <mxGeometry x="-413" y="360" width="160" height="80" as="geometry" />
        </mxCell>
        <mxCell id="I2zsLf9uVO9FWtNclEBN-24" value="" style="edgeStyle=orthogonalEdgeStyle;rounded=0;orthogonalLoop=1;jettySize=auto;html=1;" parent="WIyWlLk6GJQsqaUBKTNV-1" source="I2zsLf9uVO9FWtNclEBN-7" target="I2zsLf9uVO9FWtNclEBN-22" edge="1">
          <mxGeometry relative="1" as="geometry" />
        </mxCell>
        <mxCell id="I2zsLf9uVO9FWtNclEBN-7" value="Validate Product &amp;amp; Order Date" style="shape=parallelogram;perimeter=parallelogramPerimeter;whiteSpace=wrap;html=1;fixedSize=1;" parent="WIyWlLk6GJQsqaUBKTNV-1" vertex="1">
          <mxGeometry x="-390" y="730" width="120" height="60" as="geometry" />
        </mxCell>
        <mxCell id="I2zsLf9uVO9FWtNclEBN-12" value="" style="edgeStyle=orthogonalEdgeStyle;rounded=0;orthogonalLoop=1;jettySize=auto;html=1;" parent="WIyWlLk6GJQsqaUBKTNV-1" source="I2zsLf9uVO9FWtNclEBN-9" target="I2zsLf9uVO9FWtNclEBN-11" edge="1">
          <mxGeometry relative="1" as="geometry" />
        </mxCell>
        <mxCell id="I2zsLf9uVO9FWtNclEBN-9" value="Read Tax file for tge User State" style="shape=parallelogram;perimeter=parallelogramPerimeter;whiteSpace=wrap;html=1;fixedSize=1;" parent="WIyWlLk6GJQsqaUBKTNV-1" vertex="1">
          <mxGeometry x="-410" y="860" width="160" height="60" as="geometry" />
        </mxCell>
        <mxCell id="I2zsLf9uVO9FWtNclEBN-14" style="edgeStyle=orthogonalEdgeStyle;rounded=0;orthogonalLoop=1;jettySize=auto;html=1;exitX=0.5;exitY=1;exitDx=0;exitDy=0;" parent="WIyWlLk6GJQsqaUBKTNV-1" source="I2zsLf9uVO9FWtNclEBN-11" target="I2zsLf9uVO9FWtNclEBN-13" edge="1">
          <mxGeometry relative="1" as="geometry" />
        </mxCell>
        <mxCell id="I2zsLf9uVO9FWtNclEBN-11" value="Display User Final Price with Tax Calculation" style="rounded=0;whiteSpace=wrap;html=1;" parent="WIyWlLk6GJQsqaUBKTNV-1" vertex="1">
          <mxGeometry x="-390" y="990" width="120" height="60" as="geometry" />
        </mxCell>
        <mxCell id="I2zsLf9uVO9FWtNclEBN-16" value="" style="edgeStyle=orthogonalEdgeStyle;rounded=0;orthogonalLoop=1;jettySize=auto;html=1;" parent="WIyWlLk6GJQsqaUBKTNV-1" source="I2zsLf9uVO9FWtNclEBN-13" target="I2zsLf9uVO9FWtNclEBN-15" edge="1">
          <mxGeometry relative="1" as="geometry" />
        </mxCell>
        <mxCell id="I2zsLf9uVO9FWtNclEBN-13" value="Confirm Product Order" style="rounded=1;whiteSpace=wrap;html=1;" parent="WIyWlLk6GJQsqaUBKTNV-1" vertex="1">
          <mxGeometry x="-390" y="1110" width="120" height="60" as="geometry" />
        </mxCell>
        <mxCell id="I2zsLf9uVO9FWtNclEBN-20" value="" style="edgeStyle=orthogonalEdgeStyle;rounded=0;orthogonalLoop=1;jettySize=auto;html=1;" parent="WIyWlLk6GJQsqaUBKTNV-1" source="I2zsLf9uVO9FWtNclEBN-15" target="I2zsLf9uVO9FWtNclEBN-19" edge="1">
          <mxGeometry relative="1" as="geometry" />
        </mxCell>
        <mxCell id="I2zsLf9uVO9FWtNclEBN-15" value="Update Orders in Orders_&amp;lt;dd-mm-yy&amp;gt;.txt" style="shape=parallelogram;perimeter=parallelogramPerimeter;whiteSpace=wrap;html=1;fixedSize=1;" parent="WIyWlLk6GJQsqaUBKTNV-1" vertex="1">
          <mxGeometry x="-430" y="1250" width="200" height="100" as="geometry" />
        </mxCell>
        <mxCell id="I2zsLf9uVO9FWtNclEBN-19" value="Show User Confirmation" style="rounded=1;whiteSpace=wrap;html=1;" parent="WIyWlLk6GJQsqaUBKTNV-1" vertex="1">
          <mxGeometry x="-390" y="1450" width="120" height="60" as="geometry" />
        </mxCell>
        <mxCell id="I2zsLf9uVO9FWtNclEBN-25" style="edgeStyle=orthogonalEdgeStyle;rounded=0;orthogonalLoop=1;jettySize=auto;html=1;entryX=1;entryY=0.5;entryDx=0;entryDy=0;" parent="WIyWlLk6GJQsqaUBKTNV-1" source="I2zsLf9uVO9FWtNclEBN-22" target="I2zsLf9uVO9FWtNclEBN-9" edge="1">
          <mxGeometry relative="1" as="geometry">
            <Array as="points">
              <mxPoint x="-105" y="890" />
            </Array>
          </mxGeometry>
        </mxCell>
        <mxCell id="I2zsLf9uVO9FWtNclEBN-26" style="edgeStyle=orthogonalEdgeStyle;rounded=0;orthogonalLoop=1;jettySize=auto;html=1;entryX=1;entryY=0.5;entryDx=0;entryDy=0;" parent="WIyWlLk6GJQsqaUBKTNV-1" source="I2zsLf9uVO9FWtNclEBN-22" target="I2zsLf9uVO9FWtNclEBN-2" edge="1">
          <mxGeometry relative="1" as="geometry">
            <Array as="points">
              <mxPoint x="-110" y="630" />
            </Array>
          </mxGeometry>
        </mxCell>
        <mxCell id="I2zsLf9uVO9FWtNclEBN-22" value="Is Product and date valid" style="rhombus;whiteSpace=wrap;html=1;rounded=1;" parent="WIyWlLk6GJQsqaUBKTNV-1" vertex="1">
          <mxGeometry x="-170" y="705" width="130" height="110" as="geometry" />
        </mxCell>
        <mxCell id="I2zsLf9uVO9FWtNclEBN-27" value="Data from Past" style="text;html=1;whiteSpace=wrap;strokeColor=none;fillColor=none;align=center;verticalAlign=middle;rounded=0;" parent="WIyWlLk6GJQsqaUBKTNV-1" vertex="1">
          <mxGeometry x="-100" y="670" width="60" height="30" as="geometry" />
        </mxCell>
        <mxCell id="I2zsLf9uVO9FWtNclEBN-28" value="data is valid" style="text;html=1;whiteSpace=wrap;strokeColor=none;fillColor=none;align=center;verticalAlign=middle;rounded=0;" parent="WIyWlLk6GJQsqaUBKTNV-1" vertex="1">
          <mxGeometry x="-90" y="860" width="60" height="30" as="geometry" />
        </mxCell>
        <mxCell id="iSP8wMhFKayLy5F43xN8-9" style="edgeStyle=orthogonalEdgeStyle;rounded=0;orthogonalLoop=1;jettySize=auto;html=1;entryX=0.5;entryY=0;entryDx=0;entryDy=0;" edge="1" parent="WIyWlLk6GJQsqaUBKTNV-1" source="iSP8wMhFKayLy5F43xN8-0" target="iSP8wMhFKayLy5F43xN8-1">
          <mxGeometry relative="1" as="geometry" />
        </mxCell>
        <mxCell id="iSP8wMhFKayLy5F43xN8-0" value="Ask for order date and number" style="shape=parallelogram;perimeter=parallelogramPerimeter;whiteSpace=wrap;html=1;fixedSize=1;" vertex="1" parent="WIyWlLk6GJQsqaUBKTNV-1">
          <mxGeometry x="-5" y="380" width="210" height="50" as="geometry" />
        </mxCell>
        <mxCell id="iSP8wMhFKayLy5F43xN8-12" style="edgeStyle=orthogonalEdgeStyle;rounded=0;orthogonalLoop=1;jettySize=auto;html=1;entryX=0;entryY=1;entryDx=0;entryDy=0;" edge="1" parent="WIyWlLk6GJQsqaUBKTNV-1" source="iSP8wMhFKayLy5F43xN8-1" target="iSP8wMhFKayLy5F43xN8-0">
          <mxGeometry relative="1" as="geometry">
            <mxPoint x="10" y="450" as="targetPoint" />
            <Array as="points">
              <mxPoint x="-5" y="550" />
            </Array>
          </mxGeometry>
        </mxCell>
        <mxCell id="iSP8wMhFKayLy5F43xN8-1" value="valid" style="rhombus;whiteSpace=wrap;html=1;" vertex="1" parent="WIyWlLk6GJQsqaUBKTNV-1">
          <mxGeometry x="30" y="500" width="140" height="90" as="geometry" />
        </mxCell>
        <mxCell id="iSP8wMhFKayLy5F43xN8-16" style="edgeStyle=orthogonalEdgeStyle;rounded=0;orthogonalLoop=1;jettySize=auto;html=1;entryX=0.5;entryY=0;entryDx=0;entryDy=0;" edge="1" parent="WIyWlLk6GJQsqaUBKTNV-1" source="iSP8wMhFKayLy5F43xN8-13" target="iSP8wMhFKayLy5F43xN8-14">
          <mxGeometry relative="1" as="geometry" />
        </mxCell>
        <mxCell id="iSP8wMhFKayLy5F43xN8-13" value="display name: ask to update" style="rounded=1;whiteSpace=wrap;html=1;" vertex="1" parent="WIyWlLk6GJQsqaUBKTNV-1">
          <mxGeometry x="85" y="610" width="120" height="60" as="geometry" />
        </mxCell>
        <mxCell id="iSP8wMhFKayLy5F43xN8-26" style="edgeStyle=orthogonalEdgeStyle;rounded=0;orthogonalLoop=1;jettySize=auto;html=1;" edge="1" parent="WIyWlLk6GJQsqaUBKTNV-1" source="iSP8wMhFKayLy5F43xN8-14" target="iSP8wMhFKayLy5F43xN8-21">
          <mxGeometry relative="1" as="geometry" />
        </mxCell>
        <mxCell id="iSP8wMhFKayLy5F43xN8-14" value="update customer name" style="rounded=0;whiteSpace=wrap;html=1;" vertex="1" parent="WIyWlLk6GJQsqaUBKTNV-1">
          <mxGeometry x="-5" y="780" width="120" height="60" as="geometry" />
        </mxCell>
        <mxCell id="iSP8wMhFKayLy5F43xN8-15" value="keep existing name" style="rounded=0;whiteSpace=wrap;html=1;" vertex="1" parent="WIyWlLk6GJQsqaUBKTNV-1">
          <mxGeometry x="190" y="780" width="120" height="60" as="geometry" />
        </mxCell>
        <mxCell id="iSP8wMhFKayLy5F43xN8-17" style="edgeStyle=orthogonalEdgeStyle;rounded=0;orthogonalLoop=1;jettySize=auto;html=1;entryX=0.564;entryY=0.083;entryDx=0;entryDy=0;entryPerimeter=0;" edge="1" parent="WIyWlLk6GJQsqaUBKTNV-1" source="iSP8wMhFKayLy5F43xN8-13" target="iSP8wMhFKayLy5F43xN8-15">
          <mxGeometry relative="1" as="geometry" />
        </mxCell>
        <mxCell id="iSP8wMhFKayLy5F43xN8-19" value="empty?" style="rhombus;whiteSpace=wrap;html=1;" vertex="1" parent="WIyWlLk6GJQsqaUBKTNV-1">
          <mxGeometry x="105" y="690" width="80" height="80" as="geometry" />
        </mxCell>
        <mxCell id="iSP8wMhFKayLy5F43xN8-20" style="edgeStyle=orthogonalEdgeStyle;rounded=0;orthogonalLoop=1;jettySize=auto;html=1;entryX=0.5;entryY=0;entryDx=0;entryDy=0;" edge="1" parent="WIyWlLk6GJQsqaUBKTNV-1" source="iSP8wMhFKayLy5F43xN8-21" target="iSP8wMhFKayLy5F43xN8-22">
          <mxGeometry relative="1" as="geometry" />
        </mxCell>
        <mxCell id="iSP8wMhFKayLy5F43xN8-21" value="display state: ask to update" style="rounded=1;whiteSpace=wrap;html=1;" vertex="1" parent="WIyWlLk6GJQsqaUBKTNV-1">
          <mxGeometry x="90" y="880" width="120" height="60" as="geometry" />
        </mxCell>
        <mxCell id="iSP8wMhFKayLy5F43xN8-34" style="edgeStyle=orthogonalEdgeStyle;rounded=0;orthogonalLoop=1;jettySize=auto;html=1;entryX=0;entryY=0.5;entryDx=0;entryDy=0;" edge="1" parent="WIyWlLk6GJQsqaUBKTNV-1" source="iSP8wMhFKayLy5F43xN8-22" target="iSP8wMhFKayLy5F43xN8-29">
          <mxGeometry relative="1" as="geometry" />
        </mxCell>
        <mxCell id="iSP8wMhFKayLy5F43xN8-22" value="update customer name" style="rounded=0;whiteSpace=wrap;html=1;" vertex="1" parent="WIyWlLk6GJQsqaUBKTNV-1">
          <mxGeometry y="1050" width="120" height="60" as="geometry" />
        </mxCell>
        <mxCell id="iSP8wMhFKayLy5F43xN8-36" style="edgeStyle=orthogonalEdgeStyle;rounded=0;orthogonalLoop=1;jettySize=auto;html=1;entryX=1;entryY=0.5;entryDx=0;entryDy=0;" edge="1" parent="WIyWlLk6GJQsqaUBKTNV-1" source="iSP8wMhFKayLy5F43xN8-23" target="iSP8wMhFKayLy5F43xN8-29">
          <mxGeometry relative="1" as="geometry" />
        </mxCell>
        <mxCell id="iSP8wMhFKayLy5F43xN8-23" value="keep existing name" style="rounded=0;whiteSpace=wrap;html=1;" vertex="1" parent="WIyWlLk6GJQsqaUBKTNV-1">
          <mxGeometry x="195" y="1050" width="120" height="60" as="geometry" />
        </mxCell>
        <mxCell id="iSP8wMhFKayLy5F43xN8-24" style="edgeStyle=orthogonalEdgeStyle;rounded=0;orthogonalLoop=1;jettySize=auto;html=1;entryX=0.564;entryY=0.083;entryDx=0;entryDy=0;entryPerimeter=0;" edge="1" parent="WIyWlLk6GJQsqaUBKTNV-1" source="iSP8wMhFKayLy5F43xN8-21" target="iSP8wMhFKayLy5F43xN8-23">
          <mxGeometry relative="1" as="geometry" />
        </mxCell>
        <mxCell id="iSP8wMhFKayLy5F43xN8-25" value="empty?" style="rhombus;whiteSpace=wrap;html=1;" vertex="1" parent="WIyWlLk6GJQsqaUBKTNV-1">
          <mxGeometry x="110" y="960" width="80" height="80" as="geometry" />
        </mxCell>
        <mxCell id="iSP8wMhFKayLy5F43xN8-27" style="edgeStyle=orthogonalEdgeStyle;rounded=0;orthogonalLoop=1;jettySize=auto;html=1;entryX=0.681;entryY=0.072;entryDx=0;entryDy=0;entryPerimeter=0;" edge="1" parent="WIyWlLk6GJQsqaUBKTNV-1" source="iSP8wMhFKayLy5F43xN8-15" target="iSP8wMhFKayLy5F43xN8-21">
          <mxGeometry relative="1" as="geometry" />
        </mxCell>
        <mxCell id="iSP8wMhFKayLy5F43xN8-28" style="edgeStyle=orthogonalEdgeStyle;rounded=0;orthogonalLoop=1;jettySize=auto;html=1;entryX=0.5;entryY=0;entryDx=0;entryDy=0;" edge="1" parent="WIyWlLk6GJQsqaUBKTNV-1" source="iSP8wMhFKayLy5F43xN8-29" target="iSP8wMhFKayLy5F43xN8-30">
          <mxGeometry relative="1" as="geometry" />
        </mxCell>
        <mxCell id="iSP8wMhFKayLy5F43xN8-29" value="display product type: ask to update" style="rounded=1;whiteSpace=wrap;html=1;" vertex="1" parent="WIyWlLk6GJQsqaUBKTNV-1">
          <mxGeometry x="100" y="1130" width="120" height="60" as="geometry" />
        </mxCell>
        <mxCell id="iSP8wMhFKayLy5F43xN8-30" value="update customer name" style="rounded=0;whiteSpace=wrap;html=1;" vertex="1" parent="WIyWlLk6GJQsqaUBKTNV-1">
          <mxGeometry x="10" y="1300" width="120" height="60" as="geometry" />
        </mxCell>
        <mxCell id="iSP8wMhFKayLy5F43xN8-31" value="keep existing name" style="rounded=0;whiteSpace=wrap;html=1;" vertex="1" parent="WIyWlLk6GJQsqaUBKTNV-1">
          <mxGeometry x="205" y="1310" width="120" height="60" as="geometry" />
        </mxCell>
        <mxCell id="iSP8wMhFKayLy5F43xN8-32" style="edgeStyle=orthogonalEdgeStyle;rounded=0;orthogonalLoop=1;jettySize=auto;html=1;entryX=0.564;entryY=0.083;entryDx=0;entryDy=0;entryPerimeter=0;" edge="1" parent="WIyWlLk6GJQsqaUBKTNV-1" source="iSP8wMhFKayLy5F43xN8-29" target="iSP8wMhFKayLy5F43xN8-31">
          <mxGeometry relative="1" as="geometry" />
        </mxCell>
        <mxCell id="iSP8wMhFKayLy5F43xN8-33" value="empty?" style="rhombus;whiteSpace=wrap;html=1;" vertex="1" parent="WIyWlLk6GJQsqaUBKTNV-1">
          <mxGeometry x="120" y="1210" width="80" height="80" as="geometry" />
        </mxCell>
        <mxCell id="iSP8wMhFKayLy5F43xN8-37" style="edgeStyle=orthogonalEdgeStyle;rounded=0;orthogonalLoop=1;jettySize=auto;html=1;entryX=0.5;entryY=0;entryDx=0;entryDy=0;" edge="1" parent="WIyWlLk6GJQsqaUBKTNV-1" source="iSP8wMhFKayLy5F43xN8-38" target="iSP8wMhFKayLy5F43xN8-39">
          <mxGeometry relative="1" as="geometry" />
        </mxCell>
        <mxCell id="iSP8wMhFKayLy5F43xN8-38" value="display area: ask to update" style="rounded=1;whiteSpace=wrap;html=1;" vertex="1" parent="WIyWlLk6GJQsqaUBKTNV-1">
          <mxGeometry x="100" y="1390" width="120" height="60" as="geometry" />
        </mxCell>
        <mxCell id="iSP8wMhFKayLy5F43xN8-39" value="update customer name" style="rounded=0;whiteSpace=wrap;html=1;" vertex="1" parent="WIyWlLk6GJQsqaUBKTNV-1">
          <mxGeometry x="10" y="1560" width="120" height="60" as="geometry" />
        </mxCell>
        <mxCell id="iSP8wMhFKayLy5F43xN8-40" value="keep existing name" style="rounded=0;whiteSpace=wrap;html=1;" vertex="1" parent="WIyWlLk6GJQsqaUBKTNV-1">
          <mxGeometry x="205" y="1560" width="120" height="60" as="geometry" />
        </mxCell>
        <mxCell id="iSP8wMhFKayLy5F43xN8-41" style="edgeStyle=orthogonalEdgeStyle;rounded=0;orthogonalLoop=1;jettySize=auto;html=1;entryX=0.564;entryY=0.083;entryDx=0;entryDy=0;entryPerimeter=0;" edge="1" parent="WIyWlLk6GJQsqaUBKTNV-1" source="iSP8wMhFKayLy5F43xN8-38" target="iSP8wMhFKayLy5F43xN8-40">
          <mxGeometry relative="1" as="geometry" />
        </mxCell>
        <mxCell id="iSP8wMhFKayLy5F43xN8-42" value="empty?" style="rhombus;whiteSpace=wrap;html=1;" vertex="1" parent="WIyWlLk6GJQsqaUBKTNV-1">
          <mxGeometry x="120" y="1470" width="80" height="80" as="geometry" />
        </mxCell>
        <mxCell id="iSP8wMhFKayLy5F43xN8-43" style="edgeStyle=orthogonalEdgeStyle;rounded=0;orthogonalLoop=1;jettySize=auto;html=1;entryX=0.196;entryY=0.019;entryDx=0;entryDy=0;entryPerimeter=0;" edge="1" parent="WIyWlLk6GJQsqaUBKTNV-1" source="iSP8wMhFKayLy5F43xN8-30" target="iSP8wMhFKayLy5F43xN8-38">
          <mxGeometry relative="1" as="geometry" />
        </mxCell>
        <mxCell id="iSP8wMhFKayLy5F43xN8-44" style="edgeStyle=orthogonalEdgeStyle;rounded=0;orthogonalLoop=1;jettySize=auto;html=1;entryX=1;entryY=0.387;entryDx=0;entryDy=0;entryPerimeter=0;" edge="1" parent="WIyWlLk6GJQsqaUBKTNV-1" source="iSP8wMhFKayLy5F43xN8-31" target="iSP8wMhFKayLy5F43xN8-38">
          <mxGeometry relative="1" as="geometry" />
        </mxCell>
        <mxCell id="iSP8wMhFKayLy5F43xN8-49" style="edgeStyle=orthogonalEdgeStyle;rounded=0;orthogonalLoop=1;jettySize=auto;html=1;" edge="1" parent="WIyWlLk6GJQsqaUBKTNV-1" source="iSP8wMhFKayLy5F43xN8-45">
          <mxGeometry relative="1" as="geometry">
            <mxPoint x="250" y="1750" as="targetPoint" />
          </mxGeometry>
        </mxCell>
        <mxCell id="iSP8wMhFKayLy5F43xN8-53" style="edgeStyle=orthogonalEdgeStyle;rounded=0;orthogonalLoop=1;jettySize=auto;html=1;entryX=0;entryY=0.5;entryDx=0;entryDy=0;" edge="1" parent="WIyWlLk6GJQsqaUBKTNV-1" source="iSP8wMhFKayLy5F43xN8-45" target="iSP8wMhFKayLy5F43xN8-51">
          <mxGeometry relative="1" as="geometry" />
        </mxCell>
        <mxCell id="iSP8wMhFKayLy5F43xN8-45" value="properties have changed?" style="rhombus;whiteSpace=wrap;html=1;" vertex="1" parent="WIyWlLk6GJQsqaUBKTNV-1">
          <mxGeometry x="100" y="1640" width="130" height="120" as="geometry" />
        </mxCell>
        <mxCell id="iSP8wMhFKayLy5F43xN8-46" style="edgeStyle=orthogonalEdgeStyle;rounded=0;orthogonalLoop=1;jettySize=auto;html=1;entryX=0.142;entryY=0.386;entryDx=0;entryDy=0;entryPerimeter=0;" edge="1" parent="WIyWlLk6GJQsqaUBKTNV-1" source="iSP8wMhFKayLy5F43xN8-39" target="iSP8wMhFKayLy5F43xN8-45">
          <mxGeometry relative="1" as="geometry" />
        </mxCell>
        <mxCell id="iSP8wMhFKayLy5F43xN8-47" style="edgeStyle=orthogonalEdgeStyle;rounded=0;orthogonalLoop=1;jettySize=auto;html=1;entryX=0.881;entryY=0.409;entryDx=0;entryDy=0;entryPerimeter=0;" edge="1" parent="WIyWlLk6GJQsqaUBKTNV-1" source="iSP8wMhFKayLy5F43xN8-40" target="iSP8wMhFKayLy5F43xN8-45">
          <mxGeometry relative="1" as="geometry" />
        </mxCell>
        <mxCell id="iSP8wMhFKayLy5F43xN8-48" value="Recalculate totals" style="rounded=0;whiteSpace=wrap;html=1;" vertex="1" parent="WIyWlLk6GJQsqaUBKTNV-1">
          <mxGeometry x="210" y="1750" width="110" height="40" as="geometry" />
        </mxCell>
        <mxCell id="iSP8wMhFKayLy5F43xN8-50" value="yes" style="text;html=1;whiteSpace=wrap;strokeColor=none;fillColor=none;align=center;verticalAlign=middle;rounded=0;" vertex="1" parent="WIyWlLk6GJQsqaUBKTNV-1">
          <mxGeometry x="250" y="1700" width="60" height="30" as="geometry" />
        </mxCell>
        <mxCell id="iSP8wMhFKayLy5F43xN8-51" value="display new infomation and ask to save" style="rounded=1;whiteSpace=wrap;html=1;" vertex="1" parent="WIyWlLk6GJQsqaUBKTNV-1">
          <mxGeometry x="105" y="1820" width="120" height="60" as="geometry" />
        </mxCell>
        <mxCell id="iSP8wMhFKayLy5F43xN8-52" style="edgeStyle=orthogonalEdgeStyle;rounded=0;orthogonalLoop=1;jettySize=auto;html=1;entryX=0.89;entryY=0.002;entryDx=0;entryDy=0;entryPerimeter=0;" edge="1" parent="WIyWlLk6GJQsqaUBKTNV-1" source="iSP8wMhFKayLy5F43xN8-48" target="iSP8wMhFKayLy5F43xN8-51">
          <mxGeometry relative="1" as="geometry" />
        </mxCell>
        <mxCell id="iSP8wMhFKayLy5F43xN8-54" value="no" style="text;html=1;whiteSpace=wrap;strokeColor=none;fillColor=none;align=center;verticalAlign=middle;rounded=0;" vertex="1" parent="WIyWlLk6GJQsqaUBKTNV-1">
          <mxGeometry x="60" y="1760" width="60" height="30" as="geometry" />
        </mxCell>
        <mxCell id="iSP8wMhFKayLy5F43xN8-59" style="edgeStyle=orthogonalEdgeStyle;rounded=0;orthogonalLoop=1;jettySize=auto;html=1;entryX=0;entryY=0.5;entryDx=0;entryDy=0;" edge="1" parent="WIyWlLk6GJQsqaUBKTNV-1" source="iSP8wMhFKayLy5F43xN8-55" target="iSP8wMhFKayLy5F43xN8-57">
          <mxGeometry relative="1" as="geometry" />
        </mxCell>
        <mxCell id="iSP8wMhFKayLy5F43xN8-55" value="save" style="rhombus;whiteSpace=wrap;html=1;" vertex="1" parent="WIyWlLk6GJQsqaUBKTNV-1">
          <mxGeometry x="125" y="1910" width="80" height="80" as="geometry" />
        </mxCell>
        <mxCell id="iSP8wMhFKayLy5F43xN8-56" style="edgeStyle=orthogonalEdgeStyle;rounded=0;orthogonalLoop=1;jettySize=auto;html=1;entryX=0.487;entryY=0.06;entryDx=0;entryDy=0;entryPerimeter=0;" edge="1" parent="WIyWlLk6GJQsqaUBKTNV-1" source="iSP8wMhFKayLy5F43xN8-51" target="iSP8wMhFKayLy5F43xN8-55">
          <mxGeometry relative="1" as="geometry" />
        </mxCell>
        <mxCell id="iSP8wMhFKayLy5F43xN8-57" value="replace order data" style="rounded=0;whiteSpace=wrap;html=1;" vertex="1" parent="WIyWlLk6GJQsqaUBKTNV-1">
          <mxGeometry x="260" y="1930" width="120" height="60" as="geometry" />
        </mxCell>
        <mxCell id="iSP8wMhFKayLy5F43xN8-58" value="return to menu" style="rounded=0;whiteSpace=wrap;html=1;" vertex="1" parent="WIyWlLk6GJQsqaUBKTNV-1">
          <mxGeometry x="-40" y="1940" width="120" height="60" as="geometry" />
        </mxCell>
        <mxCell id="iSP8wMhFKayLy5F43xN8-60" style="edgeStyle=orthogonalEdgeStyle;rounded=0;orthogonalLoop=1;jettySize=auto;html=1;entryX=0.972;entryY=0.381;entryDx=0;entryDy=0;entryPerimeter=0;" edge="1" parent="WIyWlLk6GJQsqaUBKTNV-1" source="iSP8wMhFKayLy5F43xN8-55" target="iSP8wMhFKayLy5F43xN8-58">
          <mxGeometry relative="1" as="geometry" />
        </mxCell>
        <mxCell id="iSP8wMhFKayLy5F43xN8-61" value="yes" style="text;html=1;whiteSpace=wrap;strokeColor=none;fillColor=none;align=center;verticalAlign=middle;rounded=0;" vertex="1" parent="WIyWlLk6GJQsqaUBKTNV-1">
          <mxGeometry x="200" y="1920" width="60" height="30" as="geometry" />
        </mxCell>
        <mxCell id="iSP8wMhFKayLy5F43xN8-62" value="no" style="text;html=1;whiteSpace=wrap;strokeColor=none;fillColor=none;align=center;verticalAlign=middle;rounded=0;" vertex="1" parent="WIyWlLk6GJQsqaUBKTNV-1">
          <mxGeometry x="85" y="1920" width="60" height="30" as="geometry" />
        </mxCell>
      </root>
    </mxGraphModel>
  </diagram>
</mxfile>
